<svg width="20" height="20" viewBox="0 0 20 20" fill="none" xmlns="http://www.w3.org/2000/svg">
<g clip-path="url(#clip0_2031_3910)">
<path d="M10.6318 9.74115C10.7606 9.8286 10.9513 9.79109 11.0379 9.66341L14.5513 4.48729C14.5729 4.45552 14.588 4.41982 14.5958 4.38221C14.6035 4.34461 14.6038 4.30584 14.5966 4.26812C14.5894 4.23041 14.5748 4.19448 14.5537 4.1624C14.5326 4.13032 14.5054 4.10271 14.4736 4.08115C14.4094 4.03761 14.3306 4.02134 14.2544 4.03592C14.1783 4.0505 14.111 4.09473 14.0675 4.1589L10.5541 9.33501C10.5325 9.36678 10.5174 9.40249 10.5096 9.44009C10.5019 9.4777 10.5016 9.51646 10.5088 9.55418C10.516 9.59189 10.5306 9.62781 10.5517 9.6599C10.5728 9.69198 10.6 9.71959 10.6318 9.74115ZM14.4556 9.7916C15.0641 9.7916 15.5592 9.18312 15.5592 8.43513C15.4968 6.63486 13.4141 6.63529 13.352 8.43513C13.352 9.18312 13.8471 9.7916 14.4556 9.7916ZM14.4556 7.66348C14.7368 7.66348 14.9744 8.01683 14.9744 8.43513C14.9744 8.85343 14.7368 9.20678 14.4556 9.20678C14.1744 9.20678 13.9368 8.85343 13.9368 8.43513C13.9368 8.01683 14.1744 7.66348 14.4556 7.66348ZM11.7088 5.38717C11.7088 4.63919 11.2138 4.0307 10.6053 4.0307C9.14173 4.10303 9.14227 6.67167 10.6053 6.74364C11.2138 6.74364 11.7088 6.13512 11.7088 5.38717ZM10.0865 5.38717C10.0865 4.96887 10.3241 4.61552 10.6053 4.61552C10.8865 4.61552 11.1241 4.96887 11.1241 5.38717C11.1241 5.80547 10.8865 6.15882 10.6053 6.15882C10.3241 6.15882 10.0865 5.80543 10.0865 5.38717Z" fill="#ED1C24"/>
<path d="M10.4543 13.4875C17.6311 15.6267 22.5995 6.64176 17.0111 1.67801C16.9524 1.6274 16.8759 1.60221 16.7986 1.60797C16.7212 1.61374 16.6493 1.64999 16.5987 1.70875C16.5481 1.76752 16.5229 1.84398 16.5287 1.92132C16.5345 1.99866 16.5707 2.07054 16.6295 2.12115C21.8171 6.74235 17.0584 15.0462 10.4543 12.8711V10.8841C10.4543 10.6335 10.3027 10.2806 9.5803 10.0227C8.75613 9.72851 7.80529 9.70243 6.94506 9.82404C4.1878 4.44159 9.83091 -1.38843 15.2849 1.23437C15.3546 1.26841 15.4349 1.27338 15.5083 1.24818C15.5816 1.22298 15.642 1.16968 15.676 1.1C15.7101 1.03031 15.715 0.949959 15.6898 0.876612C15.6646 0.803265 15.6113 0.742933 15.5416 0.708888C9.65866 -2.12651 3.51253 4.07242 6.35159 9.94439C6.26702 9.96737 6.18335 9.99349 6.10074 10.0227C5.37837 10.2806 5.22671 10.6335 5.22671 10.8841V12.8304C4.63202 12.549 3.99075 12.4589 3.2014 12.4482C2.81429 12.4613 2.81417 13.0195 3.20109 13.033C3.78778 13.0333 4.33498 13.1136 4.74193 13.259C5.14246 13.4022 5.22675 13.5467 5.22675 13.5693C5.22675 13.5918 5.1423 13.7366 4.74092 13.8798C3.81004 14.2122 2.58508 14.212 1.65463 13.8798C1.25325 13.7366 1.1688 13.5918 1.1688 13.5693C1.1688 13.5427 1.27142 13.3761 1.75912 13.2241C2.12483 13.0961 1.95839 12.5634 1.58512 12.6658C0.757676 12.9237 0.583984 13.2995 0.583984 13.5693V18.8556C0.583984 19.1062 0.735648 19.4591 1.45802 19.717C2.51529 20.0944 3.88061 20.0942 4.93753 19.717C5.20027 19.6231 5.38726 19.5168 5.51916 19.4073C5.65105 19.5168 5.83804 19.6231 6.10078 19.717C7.15809 20.0944 8.52341 20.0942 9.58034 19.717C9.84308 19.6231 10.0301 19.5168 10.162 19.4073C10.2939 19.5168 10.4808 19.6231 10.7436 19.717C11.8009 20.0944 13.1662 20.0942 14.2231 19.717C14.9455 19.459 15.0971 19.1062 15.0971 18.8556V16.2124C15.0971 15.9618 14.9455 15.6089 14.2231 15.351C13.1658 14.9736 11.8005 14.9738 10.7436 15.351C10.6346 15.39 10.5388 15.431 10.4544 15.4736C10.4541 15.0924 10.4549 13.9612 10.4541 13.5635C10.4545 13.5529 10.4543 13.4989 10.4543 13.4875ZM14.5123 17.534C14.5123 17.5566 14.4278 17.7014 14.0264 17.8446C13.0956 18.1769 11.8706 18.1768 10.9402 17.8446C10.5388 17.7013 10.4543 17.5566 10.4543 17.534V16.9513C10.5388 16.9938 10.6346 17.0349 10.7435 17.0738C11.8008 17.4512 13.1661 17.4511 14.2231 17.0738C14.332 17.0349 14.4278 16.9938 14.5123 16.9513V17.534ZM9.86951 12.2057C9.86951 12.2283 9.78506 12.373 9.38368 12.5163C8.45281 12.8486 7.2278 12.8485 6.29736 12.5163C5.89598 12.373 5.81153 12.2282 5.81153 12.2057V11.6229C5.89598 11.6655 5.99177 11.7066 6.10074 11.7455C7.15805 12.1229 8.52337 12.1228 9.5803 11.7455C9.68927 11.7066 9.78506 11.6655 9.86951 11.6229V12.2057ZM6.10074 13.0671C7.25837 13.4704 8.75032 13.459 9.86951 12.9445V13.5483C9.86951 13.5709 9.78506 13.7156 9.38368 13.8589C8.45273 14.1912 7.22788 14.191 6.29736 13.8589C5.89598 13.7156 5.81153 13.5709 5.81153 13.5483V12.9445C5.89598 12.9871 5.99173 13.0281 6.10074 13.0671ZM5.22671 16.2124C5.22671 16.235 5.14226 16.3797 4.74088 16.523C3.80993 16.8554 2.58512 16.8552 1.65459 16.523C1.25321 16.3797 1.16876 16.235 1.16876 16.2124V15.6297C1.25321 15.6722 1.34901 15.7133 1.45798 15.7522C2.51525 16.1296 3.88057 16.1295 4.9375 15.7522C5.04647 15.7133 5.14226 15.6722 5.22671 15.6297V16.2124ZM1.16876 16.9512C1.25321 16.9938 1.34901 17.0349 1.45798 17.0738C2.51525 17.4512 3.88057 17.4511 4.9375 17.0738C5.04647 17.0349 5.14226 16.9938 5.22671 16.9512V17.534C5.22671 17.5566 5.14226 17.7013 4.74088 17.8446C3.81 18.1769 2.58504 18.1767 1.65459 17.8446C1.25321 17.7013 1.16876 17.5565 1.16876 17.534V16.9512ZM5.81153 16.9512C5.89598 16.9938 5.99177 17.0349 6.10074 17.0738C7.15805 17.4512 8.52337 17.4511 9.5803 17.0738C9.68927 17.0349 9.78506 16.9938 9.86951 16.9512V17.534C9.86951 17.5566 9.78506 17.7013 9.38368 17.8446C8.45281 18.1769 7.2278 18.1768 6.29736 17.8446C5.89598 17.7013 5.81153 17.5565 5.81153 17.534V16.9512ZM9.38368 16.523C8.45273 16.8554 7.22788 16.8552 6.29736 16.523C5.89598 16.3797 5.81153 16.235 5.81153 16.2124V15.6297C5.89598 15.6722 5.99177 15.7133 6.10074 15.7522C7.15805 16.1296 8.52337 16.1295 9.5803 15.7522C9.68927 15.7133 9.78506 15.6722 9.86951 15.6297V16.2124C9.86951 16.235 9.78506 16.3797 9.38368 16.523ZM9.86951 14.8908C9.86951 14.9134 9.78506 15.0581 9.38368 15.2014C8.45273 15.5337 7.22788 15.5335 6.29736 15.2014C5.89598 15.0581 5.81153 14.9134 5.81153 14.8908V14.2871C5.89598 14.3296 5.99177 14.3707 6.10074 14.4096C7.15805 14.787 8.52337 14.7869 9.5803 14.4096C9.68927 14.3707 9.78506 14.3296 9.86951 14.2871V14.8908ZM6.29736 10.5735C7.22792 10.2413 8.45339 10.2414 9.38368 10.5735C9.78506 10.7168 9.86951 10.8615 9.86951 10.8841C9.86951 10.9066 9.78506 11.0514 9.38368 11.1947C8.45273 11.527 7.22788 11.5268 6.29736 11.1947C5.89598 11.0514 5.81153 10.9067 5.81153 10.8841C5.81153 10.8615 5.89598 10.7168 6.29736 10.5735ZM1.45798 14.4306C2.61561 14.8339 4.10752 14.8226 5.22671 14.3081V14.8909C5.22671 14.9134 5.14226 15.0582 4.74088 15.2014C3.80993 15.5338 2.58512 15.5336 1.65459 15.2014C1.25321 15.0582 1.16876 14.9134 1.16876 14.8909V14.3081C1.25317 14.3506 1.34897 14.3917 1.45798 14.4306ZM4.74088 19.1662C3.80993 19.4985 2.58512 19.4984 1.65459 19.1662C1.25321 19.0229 1.16876 18.8782 1.16876 18.8556V18.2728C2.38382 18.8194 4.01196 18.8193 5.22671 18.2728V18.8556C5.22671 18.8782 5.14226 19.0229 4.74088 19.1662ZM9.38368 19.1662C8.45273 19.4985 7.22788 19.4984 6.29736 19.1662C5.89598 19.0229 5.81153 18.8782 5.81153 18.8556V18.2728C7.02659 18.8194 8.65476 18.8193 9.86951 18.2728V18.8556C9.86951 18.8782 9.78506 19.0229 9.38368 19.1662ZM14.0264 19.1662C13.0955 19.4985 11.8707 19.4984 10.9402 19.1662C10.5388 19.0229 10.4543 18.8782 10.4543 18.8556V18.2728C11.6694 18.8194 13.2975 18.8193 14.5123 18.2728V18.8556C14.5123 18.8782 14.4278 19.0229 14.0264 19.1662ZM10.9402 15.9018C11.8711 15.5695 13.0959 15.5697 14.0264 15.9018C14.4278 16.0451 14.5123 16.1899 14.5123 16.2124C14.5123 16.2349 14.4278 16.3797 14.0264 16.523C13.0955 16.8554 11.8707 16.8552 10.9402 16.523C10.5388 16.3797 10.4543 16.235 10.4543 16.2124C10.4543 16.1898 10.5388 16.0451 10.9402 15.9018Z" fill="#ED1C24"/>
</g>
<defs>
<clipPath id="clip0_2031_3910">
<rect width="20" height="20" fill="white"/>
</clipPath>
</defs>
</svg>
