<svg width="20" height="20" viewBox="0 0 20 20" fill="none" xmlns="http://www.w3.org/2000/svg">
<g clip-path="url(#clip0_2031_3898)">
<path d="M12.0916 12.6043H12.9672C13.1483 12.6043 13.3061 12.4812 13.3499 12.3056L13.5717 11.4181C13.6218 11.2188 13.4711 11.0259 13.2655 11.0259H11.8663M5.97537 13.7881H7.94834M7.94834 14.9719H5.97537M11.4602 13.7881H10.7499C10.4231 13.7881 10.1581 14.0531 10.1581 14.3799C10.1581 14.7068 10.4231 14.9718 10.7499 14.9718H11.4602C11.7871 14.9718 12.0521 14.7068 12.0521 14.3799C12.0521 14.0531 11.7871 13.7881 11.4602 13.7881ZM2.46346 13.7881H3.17373C3.50061 13.7881 3.76561 14.0531 3.76561 14.3799C3.76561 14.7068 3.50061 14.9718 3.17373 14.9718H2.46346C2.13658 14.9718 1.87158 14.7068 1.87158 14.3799C1.87158 14.0531 2.13658 13.7881 2.46346 13.7881Z" stroke="#B11DB4" stroke-width="0.585936" stroke-miterlimit="10" stroke-linecap="round" stroke-linejoin="round"/>
<path d="M5.6918 7.86914H10.2992C10.8781 7.86914 11.3719 8.2875 11.4672 8.8582L12.0914 12.6043M1.83203 12.6043L2.45625 8.8582C2.55117 8.2875 3.04531 7.86914 3.62383 7.86914H4.32461M0.687578 16.1557V13.3146C0.687578 12.9223 1.00559 12.6043 1.39785 12.6043H12.5254C12.9177 12.6043 13.2357 12.9223 13.2357 13.3146V16.1557M8.84805 17.3395H13.3145C13.4891 17.3395 13.6301 17.198 13.6301 17.0238V16.4715C13.6301 16.43 13.622 16.389 13.6062 16.3506C13.5903 16.3123 13.5671 16.2775 13.5377 16.2482C13.5084 16.2189 13.4736 16.1956 13.4353 16.1798C13.397 16.1639 13.3559 16.1558 13.3145 16.1559H0.608594C0.434375 16.1559 0.292969 16.2969 0.292969 16.4715V17.0238C0.292969 17.198 0.434375 17.3395 0.608594 17.3395H7.48086M12.8411 17.3395V19.0757C12.8411 19.4243 12.5584 19.707 12.2097 19.707H10.3157C9.96699 19.707 9.6843 19.4244 9.6843 19.0757V17.3395M1.08219 17.3395V19.0757C1.08219 19.4243 1.36484 19.707 1.71355 19.707H3.60762C3.95629 19.707 4.23898 19.4244 4.23898 19.0757V17.3395" stroke="#B11DB4" stroke-width="0.585936" stroke-miterlimit="10" stroke-linecap="round" stroke-linejoin="round"/>
<path d="M2.0574 11.026H0.65818C0.452594 11.026 0.301851 11.2189 0.351969 11.4182L0.573726 12.3056C0.595055 12.391 0.64432 12.4668 0.713682 12.5209C0.783044 12.575 0.868517 12.6044 0.9565 12.6044H1.83212M3.03216 12.6043L3.58009 9.31674C3.59237 9.24303 3.63039 9.17606 3.68741 9.12776C3.74443 9.07946 3.81673 9.05295 3.89146 9.05295H10.0321C10.1068 9.05295 10.1791 9.07946 10.2361 9.12776C10.2932 9.17606 10.3312 9.24303 10.3435 9.31674L10.8914 12.6043M13.0322 1.16253C13.7189 0.629322 14.5763 0.306275 15.5049 0.293385C17.8201 0.260963 19.7072 2.12815 19.7072 4.43635C19.7072 6.67034 17.9388 8.49143 15.726 8.5762C15.6166 8.58049 15.5103 8.61253 15.4177 8.66995L13.9916 9.55159C13.8342 9.64924 13.6302 9.53557 13.6302 9.35003V8.24104C13.6302 8.15628 13.5853 8.07815 13.5115 8.03596C12.2537 7.31721 11.4088 5.95862 11.4209 4.40354C11.4271 3.57932 11.6779 2.8094 12.1045 2.16409" stroke="#B11DB4" stroke-width="0.585936" stroke-miterlimit="10" stroke-linecap="round" stroke-linejoin="round"/>
<path d="M16.3528 2.71589C16.3528 2.71589 15.7394 2.45921 15.2311 2.5905C14.4569 2.79054 14.482 3.59234 14.8898 3.91214C15.1239 4.09578 15.4762 4.24679 15.9511 4.41464C17.0138 4.79031 16.6209 6.28898 15.5399 6.29617C15.1181 6.29898 14.9209 6.27218 14.5503 6.02976M15.5637 2.02917V6.84324" stroke="#B11DB4" stroke-width="0.585936" stroke-miterlimit="10" stroke-linecap="round" stroke-linejoin="round"/>
</g>
<defs>
<clipPath id="clip0_2031_3898">
<rect width="20" height="20" fill="white"/>
</clipPath>
</defs>
</svg>
