<svg width="20" height="20" viewBox="0 0 20 20" fill="none" xmlns="http://www.w3.org/2000/svg">
<g clip-path="url(#clip0_2031_3311)">
<path d="M4.26048 7.64117C3.06735 7.64117 2.09668 8.61184 2.09668 9.80498C2.09668 10.9981 3.06735 11.9688 4.26048 11.9688C5.45362 11.9688 6.42429 10.9981 6.42429 9.80498C6.42429 8.61184 5.45362 7.64117 4.26048 7.64117ZM4.26048 10.7924C3.71605 10.7924 3.27307 10.3494 3.27307 9.80498C3.27307 9.26051 3.71605 8.81757 4.26048 8.81757C4.80492 8.81757 5.2479 9.26051 5.2479 9.80498C5.2479 10.3494 4.80492 10.7924 4.26048 10.7924ZM8.09221 12.7518C6.89911 12.7518 5.92845 13.7225 5.92845 14.9156C5.92845 16.1087 6.89911 17.0794 8.09221 17.0794C9.28535 17.0794 10.256 16.1087 10.256 14.9156C10.256 13.7225 9.28535 12.7518 8.09221 12.7518ZM8.09221 15.903C7.54778 15.903 7.10484 15.46 7.10484 14.9156C7.10484 14.3711 7.54778 13.9282 8.09221 13.9282C8.63668 13.9282 9.07962 14.3711 9.07962 14.9156C9.07966 15.46 8.63668 15.903 8.09221 15.903Z" fill="#1D9DD9"/>
<path d="M19.4581 12.7331C19.4542 12.7293 19.4503 12.7255 19.4463 12.7217L17.4095 10.7997C18.5497 9.93759 19.0648 8.41159 18.5964 6.99991C16.3882 0.337827 7.90284 -1.77574 2.8468 3.20391C-0.93991 6.9334 -0.904577 12.9468 2.68821 16.6499C5.91585 19.9767 11.0017 20.4439 14.7553 17.9868C16.5131 16.8365 15.705 14.0985 13.6015 14.0985C12.0306 14.0985 11.7666 11.9019 13.2505 11.5258L16.8389 15.3287C16.8426 15.3327 16.8464 15.3366 16.8503 15.3405C17.5696 16.0615 18.7381 16.0634 19.4593 15.3421C20.1804 14.621 20.1804 13.4538 19.4581 12.7331ZM11.858 14.5803C12.3306 15.0282 12.9498 15.2748 13.6016 15.2748C14.541 15.2748 14.8952 16.4894 14.1111 17.0025C10.8258 19.1531 6.36385 18.7491 3.53252 15.8308C0.356914 12.5577 0.375619 7.30504 3.68531 4.04951C8.12033 -0.312917 15.5382 1.51218 17.4798 7.37018C17.8088 8.36167 17.3977 9.43904 16.5354 9.97485L13.2682 6.89175C13.466 5.94202 13.192 4.94081 12.4742 4.22304C11.5733 3.3221 8.73515 2.87304 7.50515 2.73944C7.13209 2.69881 6.81621 3.01418 6.8568 3.38779C6.9915 4.62257 7.43793 7.4543 8.34044 8.35685C9.05872 9.07504 10.0604 9.34845 11.0094 9.15069L12.3857 10.6092C10.9202 11.4048 10.6226 13.4096 11.858 14.5803ZM9.17225 7.525C8.72899 7.08175 8.33295 5.39591 8.12385 4.00646C9.51334 4.21551 11.1992 4.61159 11.6424 5.05485C12.3249 5.73736 12.325 6.8423 11.6424 7.525C10.9614 8.20606 9.85625 8.209 9.17225 7.525ZM18.6275 14.5103C18.3683 14.7696 17.9488 14.7707 17.6881 14.5145L12.1456 8.64069C12.3786 8.46742 12.585 8.26102 12.7582 8.02802L18.6321 13.5709C18.8886 13.8319 18.8871 14.2507 18.6275 14.5103Z" fill="#1D9DD9"/>
</g>
<defs>
<clipPath id="clip0_2031_3311">
<rect width="20" height="20" fill="white"/>
</clipPath>
</defs>
</svg>
