<svg width="20" height="20" viewBox="0 0 20 20" fill="none" xmlns="http://www.w3.org/2000/svg">
<g clip-path="url(#clip0_2031_3027)">
<path d="M10.0001 -2.19485e-05C8.36137 -0.0176306 6.75604 0.463814 5.39743 1.38035C4.03882 2.29688 2.99124 3.60511 2.39389 5.13123C1.75866 6.64074 1.59782 8.30781 1.93273 9.91093C2.26764 11.514 3.08245 12.9773 4.26889 14.1062L10.0001 19.6187L15.7064 14.1062C16.8928 12.9773 17.7076 11.514 18.0425 9.91093C18.3775 8.30781 18.2166 6.64074 17.5814 5.13123C16.9856 3.60912 15.9418 2.30368 14.5882 1.38748C13.2345 0.471279 11.6347 -0.0125421 10.0001 -2.19485e-05ZM14.8376 13.2062L10.0001 17.8812L5.16264 13.2062C4.16265 12.2513 3.47385 11.017 3.18619 9.6645C2.89852 8.31203 3.02536 6.90425 3.55014 5.62498C4.05615 4.32863 4.94364 3.21637 6.0953 2.4352C7.24696 1.65403 8.60857 1.24075 10.0001 1.24998C11.3917 1.24075 12.7533 1.65403 13.905 2.4352C15.0566 3.21637 15.9441 4.32863 16.4501 5.62498C16.9749 6.90425 17.1018 8.31203 16.8141 9.6645C16.5264 11.017 15.8376 12.2513 14.8376 13.2062Z" fill="#33D91D"/>
<path d="M8.125 4.1875H5.3125V12.3125H14.6875V4.1875H8.125ZM10.625 5.4375V6.6875H9.375V5.4375H10.625ZM13.4375 5.4375V11.0625H6.5625V5.4375H8.125V7.9375H11.875V5.4375H13.4375Z" fill="#33D91D"/>
</g>
<defs>
<clipPath id="clip0_2031_3027">
<rect width="20" height="20" fill="white"/>
</clipPath>
</defs>
</svg>
