<svg width="32" height="32" viewBox="0 0 32 32" fill="none" xmlns="http://www.w3.org/2000/svg">
<rect width="32" height="32" rx="6" fill="#F3FFF1"/>
<g clip-path="url(#clip0_2031_3294)">
<path d="M21.625 22.8039C20.0481 24.1094 18.0504 24.8281 16 24.8281C13.6418 24.8281 11.425 23.9098 9.75746 22.2426C8.09027 20.575 7.17191 18.3582 7.17191 16C7.17191 15.6195 7.19613 15.2379 7.24457 14.8648C7.31488 14.3145 7.43793 13.7687 7.61059 13.243C7.61508 13.2293 7.61988 13.2155 7.62445 13.2018C7.66852 13.2052 7.71293 13.2074 7.75781 13.2074C8.72695 13.2074 9.51562 12.4187 9.51562 11.4496C9.51562 10.4805 8.72695 9.6918 7.75781 9.6918C6.78867 9.6918 6 10.4805 6 11.4496C6 11.9508 6.21129 12.4034 6.54906 12.724C6.53129 12.7752 6.51398 12.8263 6.49727 12.8774C6.30112 13.4757 6.16209 14.0912 6.08203 14.7157C6.02741 15.1416 6.00002 15.5706 6.00004 16C6.00004 18.6711 7.04027 21.1824 8.92895 23.0711C10.8176 24.9598 13.3289 26 16 26C18.3227 26 20.586 25.1855 22.3723 23.7062C22.6219 23.5 22.6567 23.1309 22.45 22.8816C22.2438 22.632 21.8746 22.5973 21.625 22.8039ZM25.451 19.2761C25.4688 19.2249 25.4861 19.1737 25.5028 19.1227C25.6985 18.5262 25.8383 17.9074 25.918 17.2844C25.9723 16.8629 26 16.4309 26 16C26 13.3289 24.9598 10.8176 23.0711 8.92891C21.1825 7.04023 18.6711 6 16 6C13.6774 6 11.4141 6.81445 9.62777 8.29375C9.37816 8.5 9.3434 8.86914 9.55004 9.11836C9.75629 9.36797 10.1254 9.40273 10.375 9.19609C11.952 7.89062 13.9496 7.17188 16 7.17188C18.3582 7.17188 20.575 8.09023 22.2426 9.75742C23.9098 11.425 24.8282 13.6418 24.8282 16C24.8282 16.3805 24.8039 16.7621 24.7555 17.1352C24.6852 17.6855 24.5621 18.2312 24.3895 18.757C24.385 18.7707 24.3802 18.7845 24.3756 18.7982C24.3312 18.7946 24.2867 18.7928 24.2422 18.7926C23.2731 18.7926 22.4844 19.5812 22.4844 20.5504C22.4844 21.5195 23.2731 22.3082 24.2422 22.3082C25.2114 22.3082 26 21.5195 26 20.5504C26 20.0492 25.7887 19.5966 25.451 19.2761Z" fill="#33D91D"/>
<path d="M20.6396 15.9219C21.109 15.5014 21.405 14.8911 21.405 14.2129C21.405 12.9475 20.3755 11.918 19.11 11.918C18.0159 11.918 17.0688 12.6963 16.8582 13.7687C16.7958 14.0862 17.0027 14.3942 17.3202 14.4566C17.6377 14.5189 17.9457 14.3121 18.0081 13.9946C18.1111 13.4704 18.5745 13.0898 19.11 13.0898C19.7293 13.0898 20.2331 13.5936 20.2331 14.2129C20.2331 14.8321 19.7293 15.3359 19.11 15.3359C19.0921 15.3359 19.0757 15.3369 19.0603 15.3384C18.76 15.3637 18.5241 15.615 18.5241 15.9219C18.5241 16.2287 18.76 16.48 19.0603 16.5053C19.0757 16.5069 19.0921 16.5078 19.11 16.5078C19.7293 16.5078 20.2331 17.0116 20.2331 17.6309C20.2331 18.2501 19.7293 18.7539 19.11 18.7539C18.5528 18.7539 18.0747 18.3387 17.9979 17.7882C17.9906 17.7361 17.987 17.6835 17.987 17.6309C17.987 17.3073 17.7246 17.0449 17.4011 17.0449C17.0775 17.0449 16.8151 17.3073 16.8151 17.6309C16.8151 17.7375 16.8225 17.8449 16.8372 17.9502C16.9944 19.0764 17.9715 19.9258 19.11 19.9258C20.3755 19.9258 21.405 18.8963 21.405 17.6309C21.405 16.9526 21.109 16.3424 20.6396 15.9219ZM13.0809 19.9258C11.7106 19.9258 10.5957 18.8109 10.5957 17.4406V14.4032C10.5957 13.0328 11.7106 11.918 13.0809 11.918C14.4513 11.918 15.5661 13.0329 15.5661 14.4032V17.4406C15.5661 18.8109 14.4513 19.9258 13.0809 19.9258ZM13.0809 13.0898C12.3568 13.0898 11.7676 13.679 11.7676 14.4032V17.4406C11.7676 18.1648 12.3568 18.7539 13.0809 18.7539C13.8051 18.7539 14.3943 18.1647 14.3943 17.4406V14.4032C14.3943 13.679 13.8051 13.0898 13.0809 13.0898Z" fill="#33D91D"/>
</g>
<defs>
<clipPath id="clip0_2031_3294">
<rect width="20" height="20" fill="white" transform="translate(6 6)"/>
</clipPath>
</defs>
</svg>
