<svg width="20" height="20" viewBox="0 0 20 20" fill="none" xmlns="http://www.w3.org/2000/svg">
<g clip-path="url(#clip0_2031_3295)">
<path d="M15.625 16.8039C14.0481 18.1094 12.0504 18.8281 10 18.8281C7.64184 18.8281 5.42504 17.9098 3.75746 16.2426C2.09027 14.575 1.17191 12.3582 1.17191 10C1.17191 9.61953 1.19613 9.23789 1.24457 8.86484C1.31488 8.31445 1.43793 7.76875 1.61059 7.24297C1.61508 7.2293 1.61988 7.21555 1.62445 7.20184C1.66852 7.20516 1.71293 7.20742 1.75781 7.20742C2.72695 7.20742 3.51562 6.41875 3.51562 5.44961C3.51562 4.48047 2.72695 3.6918 1.75781 3.6918C0.788672 3.6918 0 4.48047 0 5.44961C0 5.95082 0.211289 6.40344 0.549063 6.72398C0.531289 6.77516 0.513984 6.82633 0.497266 6.87738C0.301119 7.47566 0.162086 8.09117 0.0820312 8.71566C0.02741 9.1416 2.35849e-05 9.57058 3.90625e-05 10C3.90625e-05 12.6711 1.04027 15.1824 2.92895 17.0711C4.81762 18.9598 7.32895 20 10 20C12.3227 20 14.586 19.1855 16.3723 17.7062C16.6219 17.5 16.6567 17.1309 16.45 16.8816C16.2438 16.632 15.8746 16.5973 15.625 16.8039ZM19.451 13.2761C19.4688 13.2249 19.4861 13.1737 19.5028 13.1227C19.6985 12.5262 19.8383 11.9074 19.918 11.2844C19.9723 10.8629 20 10.4309 20 10C20 7.32891 18.9598 4.81758 17.0711 2.92891C15.1825 1.04023 12.6711 0 10 0C7.67738 0 5.4141 0.814453 3.62777 2.29375C3.37816 2.5 3.3434 2.86914 3.55004 3.11836C3.75629 3.36797 4.12543 3.40273 4.37504 3.19609C5.95199 1.89062 7.94965 1.17188 10 1.17188C12.3582 1.17188 14.575 2.09023 16.2426 3.75742C17.9098 5.425 18.8282 7.6418 18.8282 10C18.8282 10.3805 18.8039 10.7621 18.7555 11.1352C18.6852 11.6855 18.5621 12.2312 18.3895 12.757C18.385 12.7707 18.3802 12.7845 18.3756 12.7982C18.3312 12.7946 18.2867 12.7928 18.2422 12.7926C17.2731 12.7926 16.4844 13.5812 16.4844 14.5504C16.4844 15.5195 17.2731 16.3082 18.2422 16.3082C19.2114 16.3082 20 15.5195 20 14.5504C20 14.0492 19.7887 13.5966 19.451 13.2761Z" fill="#33D91D"/>
<path d="M14.6396 9.92188C15.109 9.50137 15.405 8.89113 15.405 8.21289C15.405 6.94746 14.3755 5.91797 13.11 5.91797C12.0159 5.91797 11.0688 6.69633 10.8582 7.76871C10.7958 8.08625 11.0027 8.39422 11.3202 8.4566C11.6377 8.51895 11.9457 8.31215 12.0081 7.99457C12.1111 7.47035 12.5745 7.08984 13.11 7.08984C13.7293 7.08984 14.2331 7.59363 14.2331 8.21289C14.2331 8.83215 13.7293 9.33594 13.11 9.33594C13.0921 9.33594 13.0757 9.33687 13.0603 9.33844C12.76 9.36371 12.5241 9.61504 12.5241 9.92188C12.5241 10.2287 12.76 10.48 13.0603 10.5053C13.0757 10.5069 13.0921 10.5078 13.11 10.5078C13.7293 10.5078 14.2331 11.0116 14.2331 11.6309C14.2331 12.2501 13.7293 12.7539 13.11 12.7539C12.5528 12.7539 12.0747 12.3387 11.9979 11.7882C11.9906 11.7361 11.987 11.6835 11.987 11.6309C11.987 11.3073 11.7246 11.0449 11.4011 11.0449C11.0775 11.0449 10.8151 11.3073 10.8151 11.6309C10.8151 11.7375 10.8225 11.8449 10.8372 11.9502C10.9944 13.0764 11.9715 13.9258 13.11 13.9258C14.3755 13.9258 15.405 12.8963 15.405 11.6309C15.405 10.9526 15.109 10.3424 14.6396 9.92188ZM7.08094 13.9258C5.71059 13.9258 4.5957 12.8109 4.5957 11.4406V8.40316C4.5957 7.03281 5.71059 5.91797 7.08094 5.91797C8.45129 5.91797 9.56613 7.03285 9.56613 8.40316V11.4406C9.56613 12.8109 8.45125 13.9258 7.08094 13.9258ZM7.08094 7.08984C6.35676 7.08984 5.76758 7.67902 5.76758 8.40316V11.4406C5.76758 12.1648 6.35676 12.7539 7.08094 12.7539C7.80512 12.7539 8.39426 12.1647 8.39426 11.4406V8.40316C8.39426 7.67902 7.80508 7.08984 7.08094 7.08984Z" fill="#33D91D"/>
</g>
<defs>
<clipPath id="clip0_2031_3295">
<rect width="20" height="20" fill="white"/>
</clipPath>
</defs>
</svg>
