<svg width="100" height="100" viewBox="0 0 100 100" fill="none" xmlns="http://www.w3.org/2000/svg">
<path d="M57.6537 7.49982L74.6402 14.5359C79.5408 16.5658 83.4342 20.4592 85.4641 25.3598L92.5002 42.3463C94.5301 47.2469 94.5301 52.7531 92.5002 57.6537L85.4641 74.6402C83.4342 79.5408 79.5408 83.4342 74.6402 85.4641L57.6537 92.5002C52.7531 94.5301 47.2469 94.5301 42.3463 92.5002L25.3598 85.4641C20.4592 83.4342 16.5658 79.5408 14.5359 74.6402L7.49982 57.6537C5.46994 52.7531 5.46994 47.2469 7.49982 42.3463L14.5359 25.3598C16.5658 20.4592 20.4592 16.5658 25.3598 14.5359L42.3463 7.49982C47.2469 5.46994 52.7531 5.46994 57.6537 7.49982Z" fill="#FFAE58" stroke="#105D38" stroke-width="8"/>
<path fill-rule="evenodd" clip-rule="evenodd" d="M61.8801 37.88C62.4399 37.3251 63.1956 37.0128 63.9838 37.0106C64.772 37.0084 65.5295 37.3166 66.0923 37.8684C66.6552 38.4202 66.9782 39.1714 66.9916 39.9595C67.0051 40.7476 66.7078 41.5093 66.1641 42.08L50.1961 62.04C49.9216 62.3356 49.5904 62.5728 49.2222 62.7375C48.854 62.9021 48.4564 62.9909 48.0531 62.9983C47.6498 63.0058 47.2492 62.9319 46.8751 62.7809C46.5011 62.63 46.1613 62.4052 45.8761 62.12L35.2961 51.536C35.0013 51.2614 34.7649 50.9302 34.601 50.5622C34.437 50.1942 34.3488 49.7969 34.3417 49.3941C34.3346 48.9913 34.4087 48.5912 34.5596 48.2176C34.7105 47.8441 34.9351 47.5047 35.2199 47.2199C35.5048 46.935 35.8441 46.7104 36.2177 46.5595C36.5912 46.4086 36.9914 46.3345 37.3942 46.3416C37.797 46.3488 38.1942 46.4369 38.5622 46.6009C38.9302 46.7649 39.2614 47.0013 39.5361 47.296L47.9121 55.668L61.8041 37.968C61.8289 37.937 61.8556 37.9076 61.8841 37.88H61.8801Z" fill="white"/>
</svg>
